<svg version="1.1" id="Layer_1" xmlns="http://www.w3.org/2000/svg" xmlns:xlink="http://www.w3.org/1999/xlink" x="0px" y="0px"
	 width="100%" viewBox="0 0 1024 1024" enable-background="new 0 0 1024 1024" xml:space="preserve">
<path fill="#000000" opacity="1.000000" stroke="none" 
	d="
M609.000000,658.303345 
	C512.515137,658.303894 416.530273,658.291260 320.545441,658.345459 
	C316.188049,658.347900 311.896973,657.988586 307.642914,657.229431 
	C292.267151,654.485779 283.974457,642.110718 286.946167,626.327576 
	C296.763306,574.187378 306.605682,522.051941 316.458771,469.918518 
	C325.787598,420.558990 335.146362,371.205109 344.479797,321.846436 
	C345.579834,316.028992 344.143494,314.323944 338.038696,314.323364 
	C314.042450,314.321167 290.045563,314.472900 266.050323,314.330200 
	C256.344879,314.272461 249.281860,309.338715 244.953293,300.784973 
	C240.924988,292.824585 241.674713,284.958618 246.709641,277.645050 
	C250.788116,271.720825 256.920624,268.969421 263.804596,268.735657 
	C305.943024,267.304657 348.103271,267.446747 390.254425,267.780670 
	C401.639587,267.870850 410.042206,274.225342 415.220276,284.306549 
	C422.067657,297.637756 428.670776,311.095703 435.280792,324.547363 
	C458.341095,371.476013 481.361176,418.424408 504.391418,465.367889 
	C508.386719,473.511719 509.668488,473.626801 514.664246,466.368195 
	C554.889404,407.923798 594.067505,348.781464 632.771606,289.322296 
	C635.312134,285.419342 638.018188,281.615906 641.748352,278.674255 
	C646.087219,275.252502 650.867065,273.561737 656.497070,273.579041 
	C691.657898,273.687195 726.819214,273.626465 761.980408,273.639923 
	C776.065308,273.645325 784.772888,284.165558 782.107910,298.075043 
	C773.933289,340.740784 765.656738,383.387024 757.506042,426.057312 
	C748.449158,473.471405 739.470459,520.900452 730.491211,568.329285 
	C726.508850,589.364441 722.988464,610.495544 718.557251,631.434631 
	C714.623657,650.022400 704.019775,658.159912 684.984741,658.257263 
	C659.823792,658.385925 634.661621,658.297852 609.000000,658.303345 
M531.243225,582.705994 
	C525.999451,589.804504 520.722351,596.878845 515.540039,604.021973 
	C514.500183,605.455261 513.157593,607.087585 514.335632,609.021667 
	C515.321960,610.641174 517.122742,610.631409 518.813599,610.631470 
	C552.295715,610.632935 585.777893,610.660767 619.259888,610.605835 
	C623.854126,610.598328 626.760254,608.109741 627.589355,603.547119 
	C630.315735,588.543640 632.957947,573.524841 635.665100,558.517822 
	C641.815308,524.423462 647.997925,490.334961 654.137878,456.238770 
	C655.753906,447.264801 657.308960,438.279175 658.796997,429.283203 
	C659.352722,425.923889 657.845459,423.283051 654.880066,421.892761 
	C651.920166,420.505096 649.352783,422.082214 647.216125,424.078674 
	C646.015381,425.200653 645.094177,426.635376 644.114380,427.978302 
	C606.626038,479.357635 569.145508,530.742676 531.243225,582.705994 
M474.334869,610.648560 
	C485.328888,610.657288 486.043030,609.614441 481.629211,600.298706 
	C456.985168,548.284729 432.358765,496.262360 407.720276,444.245728 
	C406.066132,440.753571 404.324158,436.441223 399.908447,436.937286 
	C395.255890,437.459961 395.120178,442.357239 394.420135,446.015106 
	C390.804413,464.908569 387.326538,483.828369 383.786591,502.736359 
	C377.653046,535.497620 371.477844,568.251099 365.393250,601.021423 
	C363.978607,608.640320 365.750793,610.641479 373.475830,610.644226 
	C406.776855,610.656128 440.077911,610.648499 474.334869,610.648560 
z"/>
<path fill="#000000" opacity="1.000000" stroke="none" 
	d="
M594.688904,769.320923 
	C580.883789,755.517334 577.928101,738.938477 582.148193,721.136841 
	C588.063782,696.182739 612.240234,675.218079 637.445618,672.798889 
	C675.744019,669.122925 697.088684,699.136841 689.984619,731.888428 
	C683.726562,760.739563 655.422424,783.097656 626.121704,782.266541 
	C614.369141,781.933167 603.714417,777.786133 594.688904,769.320923 
z"/>
<path fill="#000000" opacity="1.000000" stroke="none" 
	d="
M352.994507,672.683350 
	C378.540924,669.775452 400.267761,683.797852 405.822266,706.449890 
	C408.904541,719.019714 407.889191,731.302307 402.262054,742.890015 
	C390.758118,766.579651 372.229553,781.829407 345.458252,782.056580 
	C305.094879,782.399231 289.605408,746.079407 299.685883,717.510010 
	C308.508636,692.505127 326.601074,677.806335 352.994507,672.683350 
z"/>
</svg>